<svg xmlns="http://www.w3.org/2000/svg" xmlns:xlink="http://www.w3.org/1999/xlink" preserveAspectRatio="xMidYMid" width="150" height="82" viewBox="0 0 150 82">
  <defs>
    <style>

      .cls-2 {
        fill: #ffffff;
      }
    </style>
  </defs>
  <path d="M124.264,72.293 C123.412,71.908 122.416,71.507 121.468,71.507 C119.064,71.507 118.774,73.857 118.774,75.749 C118.774,77.768 119.874,79.664 122.086,79.664 C122.974,79.664 123.577,79.422 124.266,78.884 C124.266,78.884 124.778,79.437 124.778,79.437 C124.099,80.761 122.826,81.384 121.367,81.384 C117.916,81.384 116.360,79.013 116.360,75.770 C116.360,72.571 117.907,70.156 121.325,70.156 C122.522,70.156 123.666,70.514 124.668,71.156 C124.562,71.584 124.448,71.893 124.264,72.293 M126.391,79.327 C127.347,79.678 128.379,80.032 129.407,80.032 C130.286,80.032 131.198,79.547 131.198,78.568 C131.198,77.833 130.593,77.384 130.028,77.028 C128.793,76.249 127.497,75.795 126.683,74.488 C126.212,73.734 126.146,72.605 126.573,71.817 C127.182,70.694 128.466,70.156 129.694,70.156 C131.001,70.156 131.944,70.444 133.107,71.007 C133.004,71.442 132.879,71.783 132.701,72.194 C131.728,71.772 130.963,71.507 129.880,71.507 C129.345,71.507 128.863,71.804 128.671,72.310 C128.504,72.743 128.574,73.228 128.884,73.573 C129.686,74.469 131.143,74.963 132.128,75.693 C132.955,76.306 133.492,77.075 133.492,78.136 C133.492,80.310 131.397,81.384 129.470,81.384 C128.142,81.384 127.248,81.083 126.025,80.642 C126.123,80.193 126.252,79.766 126.391,79.327 ZM95.837,75.992 C95.905,77.988 96.892,79.664 99.104,79.664 C100.022,79.664 100.991,79.452 101.690,78.829 C101.690,78.829 102.221,79.437 102.221,79.437 C101.593,80.763 99.967,81.384 98.569,81.384 C95.127,81.384 93.418,79.060 93.418,75.770 C93.418,72.577 94.826,70.156 98.282,70.156 C100.866,70.156 102.386,71.704 102.386,74.289 C102.386,74.886 102.316,75.410 102.202,75.992 C102.202,75.992 95.837,75.992 95.837,75.992 ZM95.911,74.643 C95.911,74.643 99.990,74.643 99.990,74.643 C100.098,73.331 99.868,71.507 98.199,71.507 C96.347,71.507 96.021,73.143 95.911,74.643 ZM56.099,72.293 C55.246,71.908 54.249,71.507 53.304,71.507 C50.899,71.507 50.609,73.857 50.609,75.749 C50.609,77.768 51.708,79.664 53.920,79.664 C54.809,79.664 55.411,79.422 56.101,78.884 C56.101,78.884 56.612,79.437 56.612,79.437 C55.933,80.761 54.659,81.384 53.202,81.384 C49.750,81.384 48.194,79.013 48.194,75.770 C48.194,72.571 49.741,70.156 53.160,70.156 C54.356,70.156 55.499,70.514 56.505,71.156 C56.398,71.584 56.283,71.893 56.099,72.293 ZM36.664,75.770 C36.664,72.583 38.335,70.156 41.713,70.156 C45.249,70.156 46.783,72.427 46.783,75.770 C46.783,78.999 45.121,81.384 41.713,81.384 C38.237,81.384 36.664,79.052 36.664,75.770 ZM39.080,75.770 C39.080,77.757 39.659,80.032 42.063,80.032 C44.077,80.032 44.367,77.268 44.367,75.770 C44.367,73.931 43.833,71.507 41.549,71.507 C39.410,71.507 39.080,74.145 39.080,75.770 ZM19.419,75.992 C19.487,77.988 20.474,79.664 22.684,79.664 C23.605,79.664 24.573,79.452 25.272,78.829 C25.272,78.829 25.803,79.437 25.803,79.437 C25.175,80.763 23.548,81.384 22.151,81.384 C18.708,81.384 16.999,79.060 16.999,75.770 C16.999,72.577 18.408,70.156 21.864,70.156 C24.448,70.156 25.967,71.704 25.967,74.289 C25.967,74.886 25.900,75.410 25.784,75.992 C25.784,75.992 19.419,75.992 19.419,75.992 ZM19.493,74.643 C19.493,74.643 23.572,74.643 23.572,74.643 C23.679,73.331 23.450,71.507 21.780,71.507 C19.928,71.507 19.604,73.143 19.493,74.643 ZM114.355,81.136 C114.355,81.136 112.061,81.136 112.061,81.136 C112.061,81.136 112.061,70.510 112.061,70.510 C112.896,70.240 113.486,70.156 114.355,70.156 C114.355,70.156 114.355,81.136 114.355,81.136 ZM104.689,70.247 C104.689,70.247 104.689,68.569 104.689,68.569 C105.300,68.050 105.939,67.709 106.759,67.709 C106.759,67.709 106.981,67.709 106.981,67.709 C106.981,67.709 106.981,70.403 106.981,70.403 C106.981,70.403 110.062,70.403 110.062,70.403 C110.062,70.403 110.062,71.878 110.062,71.878 C110.062,71.878 106.981,71.878 106.981,71.878 C106.981,71.878 106.981,77.622 106.981,77.622 C106.981,78.602 107.104,79.664 108.320,79.664 C109.041,79.664 109.625,79.609 110.303,79.359 C110.303,79.359 110.595,79.986 110.595,79.986 C109.855,80.823 108.552,81.384 107.436,81.384 C105.395,81.384 104.689,80.073 104.689,78.198 C104.689,78.198 104.689,71.878 104.689,71.878 C104.689,71.878 103.046,71.878 103.046,71.878 C103.046,71.878 103.046,70.997 103.046,70.997 C103.382,70.747 104.306,70.338 104.689,70.247 ZM85.497,72.171 C86.108,70.940 87.193,70.156 88.679,70.156 C91.591,70.156 91.879,72.126 91.879,74.535 C91.879,76.734 91.879,78.937 91.879,81.136 C91.879,81.136 89.586,81.136 89.586,81.136 C89.586,81.136 89.586,74.535 89.586,74.535 C89.586,69.880 85.801,71.844 85.801,75.647 C85.801,75.647 85.801,81.136 85.801,81.136 C85.801,81.136 83.507,81.136 83.507,81.136 C83.507,81.136 83.507,74.535 83.507,74.535 C83.507,69.990 79.720,71.831 79.720,75.647 C79.720,75.647 79.720,81.136 79.720,81.136 C79.720,81.136 77.428,81.136 77.428,81.136 C77.428,81.136 77.428,70.480 77.428,70.480 C77.933,70.355 78.400,70.242 78.923,70.181 C79.208,70.776 79.440,71.336 79.591,71.984 C80.191,70.874 81.261,70.156 82.600,70.156 C84.192,70.156 85.095,70.838 85.497,72.171 ZM68.930,79.327 C69.885,79.678 70.919,80.032 71.946,80.032 C72.824,80.032 73.737,79.547 73.737,78.568 C73.737,77.833 73.131,77.384 72.567,77.028 C71.331,76.249 70.037,75.795 69.222,74.488 C68.750,73.734 68.684,72.605 69.112,71.817 C69.720,70.694 71.004,70.156 72.234,70.156 C73.541,70.156 74.484,70.444 75.647,71.007 C75.541,71.442 75.416,71.783 75.241,72.194 C74.266,71.772 73.501,71.507 72.418,71.507 C71.884,71.507 71.403,71.804 71.208,72.310 C71.043,72.743 71.112,73.228 71.423,73.573 C72.226,74.469 73.680,74.963 74.666,75.693 C75.493,76.306 76.030,77.075 76.030,78.136 C76.030,80.310 73.934,81.384 72.009,81.384 C70.680,81.384 69.787,81.083 68.563,80.642 C68.661,80.193 68.790,79.766 68.930,79.327 ZM35.080,72.293 C34.227,71.908 33.231,71.507 32.285,71.507 C29.880,71.507 29.590,73.857 29.590,75.749 C29.590,77.768 30.689,79.664 32.901,79.664 C33.790,79.664 34.393,79.422 35.082,78.884 C35.082,78.884 35.593,79.437 35.593,79.437 C34.913,80.761 33.640,81.384 32.182,81.384 C28.730,81.384 27.175,79.013 27.175,75.770 C27.175,72.571 28.723,70.156 32.141,70.156 C33.338,70.156 34.481,70.514 35.485,71.156 C35.380,71.584 35.263,71.893 35.080,72.293 ZM111.671,67.128 C111.671,66.219 112.333,65.690 113.207,65.690 C114.084,65.690 114.723,66.222 114.723,67.128 C114.723,68.037 114.082,68.543 113.207,68.543 C112.338,68.543 111.671,68.039 111.671,67.128 ZM57.682,75.770 C57.682,72.583 59.354,70.156 62.731,70.156 C66.268,70.156 67.801,72.427 67.801,75.770 C67.801,78.999 66.140,81.384 62.731,81.384 C59.256,81.384 57.682,79.052 57.682,75.770 ZM27.235,40.954 C28.238,41.839 29.172,42.227 30.013,42.227 C33.630,42.225 34.501,37.609 34.501,34.689 C34.501,30.215 33.082,24.404 30.372,24.423 C27.063,24.448 25.612,32.971 25.612,37.893 C25.612,41.354 26.441,51.339 30.951,51.339 C32.768,51.339 34.360,49.909 35.296,47.496 C35.873,47.657 36.325,48.140 36.579,48.750 C35.996,51.521 32.937,54.002 30.372,54.002 C24.330,54.002 21.227,48.155 21.227,40.954 C21.227,29.228 25.075,21.783 30.372,21.783 C35.076,21.783 38.667,27.855 38.667,34.761 C38.667,39.640 36.245,44.496 31.064,44.519 C29.794,44.526 28.516,44.057 27.344,43.053 C27.139,42.229 27.105,41.740 27.235,40.954 ZM139.068,40.954 C140.071,41.839 141.005,42.227 141.847,42.227 C145.463,42.225 146.334,37.609 146.334,34.689 C146.334,30.215 144.915,24.404 142.204,24.423 C138.897,24.448 137.446,32.971 137.446,37.893 C137.446,41.354 138.275,51.339 142.784,51.339 C144.602,51.339 146.195,49.909 147.129,47.496 C147.709,47.657 148.157,48.140 148.413,48.750 C147.829,51.521 144.771,54.002 142.204,54.002 C136.163,54.002 133.061,48.155 133.061,40.954 C133.061,29.228 136.909,21.783 142.204,21.783 C146.909,21.783 150.500,27.855 150.500,34.761 C150.500,39.640 148.079,44.496 142.898,44.519 C141.627,44.526 140.350,44.057 139.176,43.053 C138.973,42.229 138.939,41.740 139.068,40.954 ZM77.019,13.733 C77.019,13.733 76.988,13.733 76.988,13.733 C74.623,27.455 73.032,39.452 70.843,53.341 C69.396,53.394 68.056,53.407 66.836,53.379 C64.213,35.098 61.090,17.574 57.547,0.733 C58.103,0.473 59.222,-0.031 60.082,0.009 C64.378,12.430 67.819,28.965 69.391,42.259 C69.391,42.259 69.630,42.259 69.630,42.259 C71.773,29.961 73.884,15.997 76.725,3.280 C77.425,3.240 77.967,3.235 78.694,3.280 C81.469,17.313 83.469,29.569 84.691,42.259 C84.691,42.259 84.888,42.259 84.888,42.259 C87.891,29.378 91.775,13.218 96.336,0.089 C96.939,0.263 97.491,0.477 98.049,0.733 C92.862,18.072 88.850,35.149 85.359,53.248 C84.287,53.335 82.306,53.379 81.350,53.379 C79.703,37.145 78.783,27.825 77.019,13.733 ZM135.943,13.203 C129.781,24.366 126.873,39.236 124.936,53.294 C123.820,53.457 121.526,53.555 120.308,53.527 C118.664,39.994 117.597,33.655 114.854,22.629 C115.402,22.184 116.533,21.783 117.349,21.773 C120.407,32.187 121.619,37.263 123.306,46.108 C123.306,46.108 123.545,46.108 123.545,46.108 C125.679,34.687 128.273,22.175 134.454,12.087 C135.065,12.328 135.512,12.659 135.943,13.203 ZM19.297,50.676 C19.743,51.750 19.826,52.373 19.908,53.379 C19.908,53.379 0.291,53.379 0.291,53.379 C-0.500,35.819 0.291,17.226 2.361,0.562 C3.035,0.801 4.614,1.157 5.254,1.536 C4.844,14.837 5.001,34.844 5.255,50.676 C5.255,50.676 19.297,50.676 19.297,50.676 ZM106.366,34.221 C105.634,33.675 104.869,33.545 104.245,33.545 C100.714,33.545 98.447,38.778 98.447,43.557 C98.445,47.617 99.828,51.362 103.257,51.362 C107.076,51.362 107.870,44.596 107.870,41.204 C107.870,36.916 108.690,24.429 102.274,24.429 C100.430,24.429 98.709,25.673 97.419,27.319 C96.981,26.946 96.440,26.169 96.245,25.599 C97.743,23.120 100.538,21.783 103.264,21.783 C109.337,21.783 112.259,29.149 112.259,40.854 C112.259,46.631 112.445,48.587 113.570,52.852 C112.807,53.426 111.993,53.811 112.035,53.773 C110.460,52.460 109.447,50.989 108.815,49.121 C107.842,51.871 105.968,54.002 102.780,54.002 C97.000,54.002 94.211,48.691 94.211,43.242 C94.211,37.484 97.440,31.526 103.672,31.526 C104.623,31.526 105.651,31.738 106.161,32.122 C106.343,32.817 106.408,33.478 106.366,34.221 ZM47.876,40.954 C48.879,41.839 49.813,42.227 50.654,42.227 C54.270,42.225 55.142,37.609 55.142,34.689 C55.142,30.215 53.723,24.404 51.013,24.423 C47.705,24.448 46.253,32.971 46.253,37.893 C46.253,41.354 47.083,51.339 51.591,51.339 C53.409,51.339 55.001,49.909 55.937,47.496 C56.515,47.657 56.966,48.140 57.220,48.750 C56.637,51.521 53.578,54.002 51.013,54.002 C44.970,54.002 41.867,48.155 41.867,40.954 C41.867,29.228 45.716,21.783 51.013,21.783 C55.717,21.783 59.307,27.855 59.307,34.761 C59.307,39.640 56.887,44.496 51.704,44.519 C50.434,44.526 49.156,44.057 47.986,43.053 C47.781,42.229 47.747,41.740 47.876,40.954 ZM60.098,75.770 C60.098,77.757 60.678,80.032 63.081,80.032 C65.096,80.032 65.385,77.268 65.385,75.770 C65.385,73.931 64.852,71.507 62.567,71.507 C60.428,71.507 60.098,74.145 60.098,75.770 Z" id="path-1" class="cls-2" fill-rule="evenodd"/>
</svg>
