<svg xmlns="http://www.w3.org/2000/svg" xmlns:xlink="http://www.w3.org/1999/xlink" preserveAspectRatio="xMidYMid" width="59" height="60" viewBox="0 0 59 60">
  <defs>
    <style>

      .cls-2 {
        fill: #ffffff;
      }
    </style>
  </defs>
  <path d="M57.313,3.331 C44.626,15.874 42.326,34.209 41.089,51.170 C40.966,52.852 37.579,52.551 37.483,51.312 C36.821,42.888 35.282,34.987 32.927,27.625 C33.623,25.704 34.363,23.809 35.143,21.950 C36.591,27.666 37.581,35.108 38.245,41.911 C38.282,42.285 38.816,42.272 38.851,41.874 C40.093,28.078 44.772,13.096 55.380,3.595 C56.871,2.260 58.625,2.035 57.313,3.331 ZM32.006,51.176 C31.520,46.496 30.903,42.256 29.913,37.394 C30.183,36.349 30.817,34.423 31.117,33.381 C32.337,39.131 33.020,45.026 33.369,50.833 C33.468,52.490 32.133,52.403 32.006,51.176 ZM24.751,57.072 C32.732,54.538 40.673,55.840 45.924,58.570 C46.849,59.052 46.762,59.812 45.898,59.687 C37.728,58.505 30.960,58.309 23.111,59.513 C22.506,59.540 22.343,59.178 22.353,58.658 C22.717,39.569 28.850,7.525 44.374,0.101 C44.977,-0.188 45.680,0.259 45.003,1.127 C34.125,15.097 26.394,36.085 24.751,57.072 ZM29.170,14.429 C23.452,26.568 21.139,42.194 20.484,51.170 C20.361,52.852 16.974,52.551 16.877,51.312 C15.414,32.666 9.647,16.579 0.257,3.238 C-0.375,2.341 0.261,1.987 0.886,2.212 C12.370,6.363 16.290,23.180 18.066,41.874 C18.100,42.236 18.613,42.291 18.671,41.911 C20.330,31.169 22.489,22.579 26.413,13.958 C24.506,10.206 22.215,6.654 19.812,3.238 C19.181,2.341 19.817,1.987 20.441,2.212 C24.228,3.581 27.017,5.939 29.264,9.582 C30.277,8.533 32.564,8.307 32.012,9.170 C30.964,10.810 29.996,12.677 29.170,14.429 ZM22.959,18.367 C20.205,12.216 16.595,6.538 11.841,1.807 C11.419,1.388 11.949,0.907 12.353,1.269 C17.255,5.677 21.084,10.482 23.918,16.127 C23.647,16.688 23.210,17.797 22.959,18.367 Z" id="path-1" class="cls-2" fill-rule="evenodd"/>
</svg>
