<?xml version="1.0" encoding="utf-8"?>
<!-- Generator: Adobe Illustrator 17.0.0, SVG Export Plug-In . SVG Version: 6.00 Build 0)  -->
<!DOCTYPE svg PUBLIC "-//W3C//DTD SVG 1.1//EN" "http://www.w3.org/Graphics/SVG/1.1/DTD/svg11.dtd">
<svg version="1.1" id="Слой_1" xmlns="http://www.w3.org/2000/svg" xmlns:xlink="http://www.w3.org/1999/xlink" x="0px" y="0px"
	 width="75px" height="75px" viewBox="0 0 75 75" enable-background="new 0 0 75 75" xml:space="preserve">
<g>
	<path fill="#D4D5D2" d="M15.187,41.69c0,0.567,0.301,0.849,0.907,0.849c1.057,0,1.661-0.849,1.813-2.121c-0.301,0-0.301,0-0.604,0
		C15.941,40.417,15.187,40.841,15.187,41.69z"/>
	<path fill="#D4D5D2" d="M53.854,41.69c0,0.567,0.301,0.849,0.907,0.849c1.057,0,1.661-0.849,1.813-2.121c-0.301,0-0.301,0-0.604,0
		C54.459,40.417,53.854,40.841,53.854,41.69z"/>
	<path fill="#D4D5D2" d="M35.427,37.447c-0.756,0-1.36,0.567-1.51,1.555h2.718C36.635,38.72,36.936,37.447,35.427,37.447z"/>
	<path fill="#D4D5D2" d="M68.204,37.73c-1.057,0-1.964,1.273-1.964,2.97c0,1.131,0.453,1.697,1.208,1.697
		c1.208,0,1.964-1.273,1.964-2.97C69.564,38.296,69.11,37.73,68.204,37.73z"/>
	<path fill="#D4D5D2" d="M52.495,17.652c-5.739,0-11.027,1.979-15.106,5.373c-3.926-3.393-9.214-5.373-14.953-5.373
		c-12.385,0-22.506,9.474-22.506,21.068s10.12,21.068,22.506,21.068c5.739,0,11.027-1.979,14.953-5.373
		c3.926,3.393,9.214,5.373,15.105,5.373C64.879,59.788,75,50.314,75,38.72S64.88,17.652,52.495,17.652z M9.447,44.375l1.36-8.201
		l-3.172,8.201H5.973l-0.153-8.2l-1.51,8.201H2.045l1.964-10.746h3.474l0.151,6.645l2.417-6.645h3.775l-1.964,10.746L9.447,44.375
		L9.447,44.375z M17.604,44.375v-0.849c-0.604,0.708-1.51,0.99-2.567,0.99c-1.36,0-2.265-0.99-2.265-2.403
		c0-2.121,1.51-3.393,4.229-3.393c0.301,0,0.604,0,1.057,0c0.151-0.282,0.151-0.424,0.151-0.567c0-0.567-0.453-0.849-1.51-0.849
		c-1.208,0-2.115,0.282-2.567,0.424c0-0.141,0.301-1.979,0.301-1.979c1.208-0.282,1.964-0.424,2.871-0.424
		c2.115,0,3.172,0.849,3.172,2.544c0,0.424,0,0.99-0.151,1.697c-0.151,1.273-0.604,3.96-0.756,4.666
		C19.264,44.375,17.604,44.375,17.604,44.375z M24.853,39.143c1.208,0.567,1.661,1.273,1.661,2.403c0,1.979-1.208,2.97-3.775,2.97
		c-1.51,0-1.964-0.141-2.567-0.282c0-0.141,0.301-1.979,0.301-1.979c0.756,0.282,1.51,0.282,2.265,0.282
		c0.907,0,1.36-0.282,1.36-0.849c0-0.424-0.151-0.567-1.208-0.99c-1.36-0.567-1.813-1.273-1.813-2.403
		c0-1.555,0.907-2.97,3.625-2.97c0.604,0,1.51,0.141,2.115,0.141l-0.301,1.979c-0.604-0.141-1.208-0.141-1.813-0.141
		c-0.756,0-1.208,0.282-1.208,0.708C23.644,38.579,23.796,38.72,24.853,39.143z M30.14,42.396c0.301,0,0.453,0,0.604-0.141
		l-0.301,1.979c-0.604,0.141-1.208,0.282-1.813,0.282c-1.208,0-1.964-0.708-1.964-1.979c0-0.424,0.151-1.414,0.301-2.262
		c0.151-0.849,1.057-5.939,1.057-5.939h2.417l-0.301,1.273h1.208l-0.301,2.121h-1.208c-0.301,1.697-0.756,3.676-0.756,3.96
		C29.386,42.113,29.688,42.396,30.14,42.396z M35.88,42.539c0.907,0,1.661-0.141,2.567-0.567l-0.453,2.121
		c-0.907,0.282-1.661,0.282-2.567,0.282c-2.718,0-4.079-1.273-4.079-3.819c0-2.97,1.813-5.232,4.229-5.232
		c1.964,0,3.324,1.273,3.324,3.111c0,0.708-0.151,1.273-0.301,2.121h-4.833C33.614,41.972,34.521,42.539,35.88,42.539z
		 M41.317,44.375H38.9l0.151-0.567c0.453-2.687,0.907-5.373,1.208-8.06h2.265c0,0.424-0.151,0.849-0.151,1.273
		c0.756-0.99,1.36-1.555,2.417-1.414c-0.301,0.424-0.756,1.414-0.907,2.544C42.374,38.012,42.224,39.002,41.317,44.375z
		 M50.683,44.234c-0.907,0.282-1.51,0.282-2.115,0.282c-2.567,0-4.229-1.838-4.229-4.666c0-3.819,2.265-6.504,5.589-6.504
		c1.057,0,2.265,0.424,2.718,0.567l-0.453,2.262c-0.907-0.424-1.51-0.567-2.115-0.567c-1.813,0-3.172,1.697-3.172,3.96
		c0,1.555,0.907,2.544,2.265,2.544c0.604,0,1.208-0.141,2.115-0.567L50.683,44.234z M58.234,44.375c-0.301,0-1.964,0-1.964,0v-0.849
		c-0.604,0.708-1.51,0.99-2.567,0.99c-1.36,0-2.265-0.99-2.265-2.403c0-2.121,1.51-3.393,4.229-3.393c0.301,0,0.604,0,1.057,0
		c0.151-0.282,0.151-0.424,0.151-0.567c0-0.567-0.453-0.849-1.51-0.849c-1.208,0-2.115,0.282-2.567,0.424
		c0-0.141,0.301-1.979,0.301-1.979c1.208-0.282,1.964-0.424,2.871-0.424c2.115,0,3.172,0.849,3.172,2.544
		c0,0.424,0,0.99-0.151,1.697C58.688,40.982,58.234,43.669,58.234,44.375z M61.558,44.375h-2.417l0.151-0.567
		c0.453-2.687,0.907-5.373,1.208-8.06h2.265c0,0.424-0.151,0.849-0.151,1.273c0.756-0.99,1.36-1.555,2.417-1.414
		c-0.301,0.424-0.756,1.414-0.907,2.544C62.615,38.012,62.314,39.002,61.558,44.375z M68.808,44.375l0.151-0.849
		c-0.604,0.708-1.36,0.99-2.265,0.99c-1.813,0-3.021-1.414-3.021-3.676c0-2.829,1.813-5.373,3.928-5.373
		c0.907,0,1.661,0.424,2.265,1.131l0.604-3.111h2.417l-1.813,10.746H68.81v0.144H68.808z"/>
</g>
</svg>
