<?xml version="1.0" encoding="utf-8"?>
<!-- Generator: Adobe Illustrator 18.1.1, SVG Export Plug-In . SVG Version: 6.00 Build 0)  -->
<svg version="1.1" id="Layer_1" xmlns="http://www.w3.org/2000/svg" xmlns:xlink="http://www.w3.org/1999/xlink" x="0px" y="0px"
	 viewBox="0 0 1814.2 1814.2" enable-background="new 0 0 1814.2 1814.2" xml:space="preserve">
<path fill="#FFFFFF" d="M907.1,0C406.1,0,0,406.1,0,907.1c0,501,406.1,907.1,907.1,907.1c501,0,907.1-406.1,907.1-907.1
	C1814.2,406.1,1408.1,0,907.1,0z M907.1,1697.8c-436.2,0-789.9-353.6-789.9-789.9c0-436.3,353.7-789.9,789.9-789.9
	c436.2,0,789.9,353.7,789.9,789.9C1697,1344.2,1343.3,1697.8,907.1,1697.8z"/>
<g>
	<path fill="#FFFFFF" d="M813.5,723.1c-46.3-46.3-110.3-75-181.1-75c-70.7,0-134.7,28.6-181,75c-46.4,46.3-75,110.4-75,181.1
		c0,70.7,28.7,134.7,75,181.1c46.3,46.3,110.3,75,181,75c50.8,0,98.1-14.8,137.9-40.3v157h118.2V904.1
		C888.5,833.4,859.9,769.4,813.5,723.1z M731,1001.6c-24.9,24.9-59.4,40.4-97.5,40.4c-38.1,0-72.5-15.5-97.5-40.4
		c-24.9-24.9-40.4-59.4-40.4-97.5c0-38.1,15.5-72.6,40.4-97.5c25-24.9,59.4-40.4,97.5-40.4c38.1,0,72.6,15.4,97.5,40.4
		c25,24.9,40.4,59.4,40.4,97.5C771.4,942.2,756,976.7,731,1001.6z"/>
	<path fill="#FFFFFF" d="M1362.8,730.8c-46.4-46.3-110.4-75-181.1-75c-50.8,0-98.1,14.8-137.9,40.3V539H925.7v372.7v0.1
		c0,70.7,28.6,134.7,75,181.1c46.3,46.3,110.3,75,181.1,75c70.7,0,134.7-28.7,181.1-75c46.3-46.3,75-110.3,75-181.1
		C1437.8,841.1,1409.1,777.1,1362.8,730.8z M1280.3,1009.3c-25,24.9-59.4,40.4-97.5,40.4c-38.1,0-72.6-15.4-97.5-40.4
		c-24.9-24.9-40.4-59.4-40.4-97.5c0-38.1,15.4-72.5,40.4-97.5c25-24.9,59.4-40.4,97.5-40.4c38.1,0,72.5,15.4,97.5,40.4
		c24.9,25,40.3,59.4,40.3,97.5C1320.6,949.9,1305.3,984.4,1280.3,1009.3z"/>
</g>
</svg>
