<?xml version="1.0" encoding="utf-8"?>
<!-- Generator: Adobe Illustrator 18.1.1, SVG Export Plug-In . SVG Version: 6.00 Build 0)  -->
<svg version="1.1" id="Isolation_Mode" xmlns="http://www.w3.org/2000/svg" xmlns:xlink="http://www.w3.org/1999/xlink" x="0px"
	 y="0px" viewBox="0 0 31.3 18" enable-background="new 0 0 31.3 18" xml:space="preserve">
<path fill-rule="evenodd" clip-rule="evenodd" fill="#999999" d="M26.8,11.4c1.9,1.8,3.3,3.2,4,4.3c0.4,0.6,0.5,1,0.3,1.5
	c-0.1,0.4-0.4,0.6-0.9,0.6l-5,0.2c-0.7,0.1-1.6-0.4-2.6-1.3c-1-0.9-1.7-1.7-2-2.3c-0.2-0.4-0.6-0.6-1.1-0.6c-0.5,0-0.9,0.2-1,0.8
	l-0.2,2c-0.1,0.4-0.2,0.7-0.5,0.9c-0.3,0.2-0.5,0.3-0.6,0.3c-0.2,0-0.5,0.1-0.9,0.1c-1.3,0.1-2.5,0-3.4-0.2c-1-0.2-1.9-0.5-2.7-1.1
	c-0.8-0.6-1.5-1.1-1.9-1.5C7.9,14.7,7.2,14,6.3,13C3.8,9.4,2,6.4,0.8,3.8C0.3,2.8,0.1,1.9,0,1.2C0.2,1,0.6,0.9,1.1,0.8
	c0.6-0.1,1.4-0.1,2.4,0c1.1,0,1.7,0,1.9,0C6,0.8,6.4,1.1,6.7,1.7c1.3,2.8,2.5,5,3.7,6.6C11.2,9,11.7,8.9,12,7.9
	c0.1,0,0.2-1.2,0.2-3.7c0-1.6-0.6-2.6-1.9-3C10.5,0.4,11.6,0,13.4,0c0.5,0,1,0,1.7,0.1c0.7,0.1,1,0.1,1.1,0.1c1.5,0,2.3,0.6,2.3,1.8
	c0,0.2,0,0.5-0.1,1.1c-0.1,0.6-0.1,1.1-0.1,1.7c0,0.5,0,1.1,0,1.7c0,0.6,0.1,1.1,0.2,1.5c0.2,0.4,0.4,0.7,0.6,0.8
	c0.3-0.2,0.5-0.4,0.8-0.6c0.3-0.2,0.5-0.5,0.8-0.9c0.3-0.4,0.5-0.7,0.6-0.9c0.2-0.2,0.4-0.6,0.7-1.1c0.3-0.6,0.5-0.9,0.5-1.1
	c0.1-0.2,0.2-0.5,0.5-1.2C23.3,2.3,23.4,2,23.4,2l0.1-0.2C23.8,1.3,23.9,1,24,0.9c0.1-0.1,0.4-0.1,0.9-0.1h4.7c0.6,0,0.9,0,1,0
	c0.1,0,0.3,0.1,0.5,0.3c0.4,0.5,0,1.4-0.9,3c-1,1.5-1.9,2.8-2.8,3.8C26.1,9.4,25.9,10.5,26.8,11.4z"/>
</svg>
