<?xml version="1.0" encoding="utf-8"?>
<!-- Generator: Adobe Illustrator 18.1.1, SVG Export Plug-In . SVG Version: 6.00 Build 0)  -->
<svg version="1.1" id="Isolation_Mode" xmlns="http://www.w3.org/2000/svg" xmlns:xlink="http://www.w3.org/1999/xlink" x="0px"
	 y="0px" viewBox="0 0 12.1 26.3" enable-background="new 0 0 12.1 26.3" xml:space="preserve">
<path fill-rule="evenodd" clip-rule="evenodd" fill="#999999" d="M2.7,13.2c0.1,0.1,0,0.7,0,0.8l0,12.3h5.4c0-3.2,0-6.6,0-9.8
	c0,0,0-3.2,0-3.2c0,0,0,0,0-0.1c0,0,3.4,0,3.5,0l0.1,0l0.5-4.5l-4.1,0c0-0.7,0-1.3,0-2c0-0.6,0-1.4,0.3-1.7l3.7-0.4l0-4.5
	c-0.7,0-1.5,0-2.2,0C9.1,0,8.4,0,7.7,0C6.3,0.1,5.1,0.6,4.3,1.2C3.2,3.1,2.7,1.5,2.7,8.6L0,8.6l0,4.5L2.7,13.2L2.7,13.2z"/>
</svg>
