<?xml version="1.0" encoding="utf-8"?>
<!-- Generator: Adobe Illustrator 18.1.1, SVG Export Plug-In . SVG Version: 6.00 Build 0)  -->
<svg version="1.1" id="Isolation_Mode" xmlns="http://www.w3.org/2000/svg" xmlns:xlink="http://www.w3.org/1999/xlink" x="0px"
	 y="0px" viewBox="0 0 35 24.1" enable-background="new 0 0 35 24.1" xml:space="preserve">
<path fill-rule="evenodd" clip-rule="evenodd" fill="#999999" d="M30.5,13.5c0.1-0.1,0,0,0.1-0.2l0.2-0.6c1,0,1.7-0.1,2.5-0.4
	l1.7-1.1c-0.5,0-1.1,0.1-2,0l-1.8-0.4c0.1-0.1,0.4-0.1,0.6-0.1c0.2,0,0.4-0.1,0.6-0.1c0.4-0.1,0.7-0.2,1.1-0.4l1.4-1.4
	c-0.6,0.2-1.2,0.4-2.1,0.4c-0.4,0-1.9,0-2.1-0.4c-0.2-0.4-0.2-0.9-0.5-1.7c-0.2-0.5-0.5-1-0.8-1.5c-0.6-0.9-1.4-1.7-2.3-2.3
	l-3.8-1.1c0.2-0.2,1.1-0.4,1.5-0.5c1.7-0.5,1.6-1.1,1.1-1.2c-0.5-0.1-1.8,0.3-2.4,0.5l1-1.1c-1.1,0.1-1.8,0.6-2.6,1.1l0.3-0.8
	c-1,0.3-2.8,2.7-3.3,3.7l-2.1,4.7c-0.2-0.1-1.4-1.4-2.4-1.9c-0.8-0.5-2-1-2.9-1.5c-2.3-1.1-4-1.7-6.4-2.6C5,4.7,6.3,5.9,8,7L6,7.3
	c0,0.9,0.7,1.8,1.2,2.3c1,0.8,1.4,0.8,2.3,1.1l0.2,0.1c-1.4,0.2-1,0.1-2.2,0.9c0,0.6,1.2,1.7,2.1,1.9l2,0.3
	c-0.1,0.1-0.4,0.2-0.5,0.3c-0.2,0.1-0.3,0.2-0.4,0.4c-0.3,0.3-0.4,0.7-0.2,1.2l2.4,1.1c-0.1,0.2-0.9,0.9-1.2,1c-1.4,1-3,1.7-5,1.7
	c-1.4,0.1-2.8-0.2-3.9-0.6C1.5,18.5,1,18.1,0,17.3c0.3,0.5,0.9,1.2,1.3,1.6c3.7,3.9,9.7,6.1,15.9,5c3.8-0.7,6.3-2,8.5-3.6
	c0.4-0.3,1.2-1.1,1.6-1.4c1-1,1.8-2.1,2.5-3.3C29.9,15.2,30.6,13.9,30.5,13.5L30.5,13.5z"/>
</svg>
