<?xml version="1.0" encoding="utf-8"?>
<!-- Generator: Adobe Illustrator 18.1.1, SVG Export Plug-In . SVG Version: 6.00 Build 0)  -->
<svg version="1.1" id="Layer_2" xmlns="http://www.w3.org/2000/svg" xmlns:xlink="http://www.w3.org/1999/xlink" x="0px" y="0px"
	 viewBox="0 0 124.4 206.8" enable-background="new 0 0 124.4 206.8" xml:space="preserve">
<path fill="#E67E17" d="M62.2,104.7c28.9,0,52.3-23.4,52.3-52.3C114.5,23.4,91.1,0,62.2,0C33.3,0,9.9,23.4,9.9,52.3
	C9.9,81.2,33.3,104.7,62.2,104.7z M62.2,26.6c14.2,0,25.7,11.5,25.7,25.7c0,14.2-11.5,25.7-25.7,25.7S36.4,66.6,36.4,52.3
	C36.4,38.1,48,26.6,62.2,26.6z M122.5,111.1c-3-5.9-11.1-10.9-22-2.3c-14.7,11.6-38.3,11.6-38.3,11.6s-23.6,0-38.3-11.6
	c-10.9-8.6-19.1-3.6-22,2.3c-5.2,10.3,0.7,15.3,13.8,23.8c11.2,7.2,26.6,9.9,36.6,10.9l-8.3,8.3c-11.7,11.7-23,23-30.8,30.8
	c-4.7,4.7-4.7,12.3,0,17l1.4,1.4c4.7,4.7,12.3,4.7,17,0l30.8-30.8c11.7,11.7,23,23,30.8,30.8c4.7,4.7,12.3,4.7,17,0l1.4-1.4
	c4.7-4.7,4.7-12.3,0-17L80.7,154l-8.3-8.3c10-1,25.2-3.7,36.3-10.9C121.8,126.4,127.7,121.4,122.5,111.1z"/>
</svg>
