<?xml version="1.0" encoding="utf-8"?>
<!-- Generator: Adobe Illustrator 18.1.1, SVG Export Plug-In . SVG Version: 6.00 Build 0)  -->
<svg version="1.1" id="Layer_1" xmlns="http://www.w3.org/2000/svg" xmlns:xlink="http://www.w3.org/1999/xlink" x="0px" y="0px"
	 viewBox="0 0 24.5 24.5" enable-background="new 0 0 24.5 24.5" xml:space="preserve">
<path fill-rule="evenodd" clip-rule="evenodd" fill="#993A3A" d="M21.4,0c-3.1,0-6.1,0-9.2,0c-3,0-6.1,0-9.1,0C1.2,0,0,1.1,0,3
	c0,6.1,0,12.3,0,18.4c0,1.8,1.2,3,3,3c6.2,0,12.3,0,18.5,0c1.8,0,3-1.2,3-3.1c0-6.1,0-12.2,0-18.4C24.5,1.2,23.3,0,21.4,0z
	 M17.9,2.9c0.9,0,1.8,0,2.7,0c0.6,0,0.9,0.3,0.9,0.9c0,0.9,0,1.8,0,2.7c0,0.6-0.4,0.9-1,1c-0.4,0-0.9,0-1.4,0c-0.4,0-0.9,0-1.3,0
	c-0.6,0-0.9-0.3-1-0.9c0-0.9,0-1.9,0-2.8C17,3.2,17.3,2.9,17.9,2.9z M12.2,7.6c2.6,0,4.7,2.1,4.7,4.6c0,2.6-2,4.7-4.6,4.7
	c-2.6,0-4.6-2.1-4.6-4.7C7.6,9.7,9.7,7.6,12.2,7.6z M21.6,11.1c0,3.1,0,6.2,0,9.2c0,1-0.3,1.2-1.2,1.2c-5.4,0-10.9,0-16.3,0
	c-0.9,0-1.2-0.3-1.2-1.1c0-3.2,0-6.4,0-9.7c0-0.1,0-0.2,0-0.4c0.7,0,1.3,0,2,0c-0.5,2.9,0.2,5.4,2.3,7.4c1.6,1.4,3.5,2.1,5.6,1.9
	c4-0.3,7.8-4,6.8-9.3c0.7,0,1.3,0,2,0C21.6,10.6,21.6,10.8,21.6,11.1z"/>
</svg>
