<?xml version="1.0" encoding="utf-8"?>
<!-- Generator: Adobe Illustrator 17.0.0, SVG Export Plug-In . SVG Version: 6.00 Build 0)  -->
<!DOCTYPE svg PUBLIC "-//W3C//DTD SVG 1.1//EN" "http://www.w3.org/Graphics/SVG/1.1/DTD/svg11.dtd">
<svg version="1.1" id="Слой_1" xmlns="http://www.w3.org/2000/svg" xmlns:xlink="http://www.w3.org/1999/xlink" x="0px" y="0px"
	 width="18px" height="18px" viewBox="0 0 18 18" enable-background="new 0 0 18 18" xml:space="preserve">
<g>
	<path fill="#D4D5D2" d="M9,0.055c-4.912,0-8.885,3.984-8.885,8.909S4.088,17.872,9,17.872s8.885-3.984,8.885-8.909
		C17.92,4.038,13.912,0.055,9,0.055z M4.269,11.028L3.402,7.732C3.366,7.515,3.294,7.443,3.15,7.37
		C2.897,7.225,2.463,7.116,2.102,7.008l0.036-0.109h1.806c0.217,0,0.433,0.145,0.506,0.434l0.433,2.39l1.12-2.825h1.12l-1.734,4.128
		L4.269,11.028L4.269,11.028z M6.689,11.028l0.867-4.128h1.083l-0.867,4.128H6.689z M9.686,11.1c-0.469,0-0.939-0.109-1.192-0.217
		l0.181-0.905c0.253,0.109,0.542,0.254,1.083,0.254c0.325,0,0.65-0.145,0.65-0.399c0-0.181-0.144-0.326-0.542-0.507
		S8.927,8.782,8.927,8.203c0-0.796,0.758-1.376,1.806-1.376c0.397,0,0.758,0.072,1.011,0.181l-0.181,0.869
		c-0.469-0.217-0.903-0.217-1.047-0.181c-0.325,0.036-0.433,0.181-0.469,0.362c0,0.471,1.517,0.543,1.481,1.629
		C11.564,10.557,10.806,11.1,9.686,11.1z M14.345,11.028l-0.144-0.616h-1.372l-0.217,0.616h-1.12l1.589-3.839
		c0.072-0.181,0.253-0.29,0.469-0.29h0.903l0.867,4.128H14.345L14.345,11.028z"/>
	<polygon fill="#D4D5D2" points="13.14,9.579 14.009,9.579 13.684,8.022 	"/>
</g>
</svg>
