<?xml version="1.0" encoding="utf-8"?>
<!-- Generator: Adobe Illustrator 17.0.0, SVG Export Plug-In . SVG Version: 6.00 Build 0)  -->
<!DOCTYPE svg PUBLIC "-//W3C//DTD SVG 1.1//EN" "http://www.w3.org/Graphics/SVG/1.1/DTD/svg11.dtd">
<svg version="1.1" id="Слой_1" xmlns="http://www.w3.org/2000/svg" xmlns:xlink="http://www.w3.org/1999/xlink" x="0px" y="0px"
	 width="32px" height="32px" viewBox="0 0 32 32" enable-background="new 0 0 32 32" xml:space="preserve">
<g>
	<path fill="#010101" d="M-393.7,404.3c-13.6,0-24.6,11-24.6,24.6s11,24.6,24.6,24.6s24.6-11,24.6-24.6
		C-369,415.3-380.1,404.3-393.7,404.3z M-406.8,434.6l-2.4-9.1c-0.1-0.6-0.3-0.8-0.7-1c-0.7-0.4-1.9-0.7-2.9-1l0.1-0.3h5
		c0.6,0,1.2,0.4,1.4,1.2l1.2,6.6l3.1-7.8h3.1l-4.8,11.4L-406.8,434.6L-406.8,434.6z M-400.1,434.6l2.4-11.4h3l-2.4,11.4H-400.1z
		 M-391.8,434.8c-1.3,0-2.6-0.3-3.3-0.6l0.5-2.5c0.7,0.3,1.5,0.7,3,0.7c0.9,0,1.8-0.4,1.8-1.1c0-0.5-0.4-0.9-1.5-1.4
		s-2.6-1.5-2.6-3.1c0-2.2,2.1-3.8,5-3.8c1.1,0,2.1,0.2,2.8,0.5l-0.5,2.4c-1.3-0.6-2.5-0.6-2.9-0.5c-0.9,0.1-1.2,0.5-1.3,1
		c0,1.3,4.2,1.5,4.1,4.5C-386.6,433.3-388.7,434.8-391.8,434.8z M-378.9,434.6l-0.4-1.7h-3.8l-0.6,1.7h-3.1l4.4-10.6
		c0.2-0.5,0.7-0.8,1.3-0.8h2.5l2.4,11.4H-378.9L-378.9,434.6z"/>
	<polygon display="none" fill="#010101" points="-382.2,430.6 -379.8,430.6 -380.7,426.3 	"/>
	<g>
		<path fill="#D4D5D2" d="M428.35-420.25c-13.6,0-24.6,11-24.6,24.6s11,24.6,24.6,24.6s24.6-11,24.6-24.6
			C453.05-409.25,441.95-420.25,428.35-420.25z M415.25-389.95l-2.4-9.1c-0.1-0.6-0.3-0.8-0.7-1c-0.7-0.4-1.9-0.7-2.9-1l0.1-0.3h5
			c0.6,0,1.2,0.4,1.4,1.2l1.2,6.6l3.1-7.8h3.1l-4.8,11.4L415.25-389.95L415.25-389.95z M421.95-389.95l2.4-11.4h3l-2.4,11.4H421.95z
			 M430.25-389.75c-1.3,0-2.6-0.3-3.3-0.6l0.5-2.5c0.7,0.3,1.5,0.7,3,0.7c0.9,0,1.8-0.4,1.8-1.1c0-0.5-0.4-0.9-1.5-1.4
			s-2.6-1.5-2.6-3.1c0-2.2,2.1-3.8,5-3.8c1.1,0,2.1,0.2,2.8,0.5l-0.5,2.4c-1.3-0.6-2.5-0.6-2.9-0.5c-0.9,0.1-1.2,0.5-1.3,1
			c0,1.3,4.2,1.5,4.1,4.5C435.45-391.25,433.35-389.75,430.25-389.75z M443.15-389.95l-0.4-1.7h-3.8l-0.6,1.7h-3.1l4.4-10.6
			c0.2-0.5,0.7-0.8,1.3-0.8h2.5l2.4,11.4H443.15L443.15-389.95z"/>
		<polygon fill="#D4D5D2" points="439.85,-393.95 442.25,-393.95 441.35,-398.25 		"/>
	</g>
</g>
<g>
	<path fill="#010101" d="M-393.7,404.3c-13.6,0-24.6,11-24.6,24.6s11,24.6,24.6,24.6s24.6-11,24.6-24.6
		C-369,415.3-380.1,404.3-393.7,404.3z M-406.8,434.6l-2.4-9.1c-0.1-0.6-0.3-0.8-0.7-1c-0.7-0.4-1.9-0.7-2.9-1l0.1-0.3h5
		c0.6,0,1.2,0.4,1.4,1.2l1.2,6.6l3.1-7.8h3.1l-4.8,11.4L-406.8,434.6L-406.8,434.6z M-400.1,434.6l2.4-11.4h3l-2.4,11.4H-400.1z
		 M-391.8,434.8c-1.3,0-2.6-0.3-3.3-0.6l0.5-2.5c0.7,0.3,1.5,0.7,3,0.7c0.9,0,1.8-0.4,1.8-1.1c0-0.5-0.4-0.9-1.5-1.4
		s-2.6-1.5-2.6-3.1c0-2.2,2.1-3.8,5-3.8c1.1,0,2.1,0.2,2.8,0.5l-0.5,2.4c-1.3-0.6-2.5-0.6-2.9-0.5c-0.9,0.1-1.2,0.5-1.3,1
		c0,1.3,4.2,1.5,4.1,4.5C-386.6,433.3-388.7,434.8-391.8,434.8z M-378.9,434.6l-0.4-1.7h-3.8l-0.6,1.7h-3.1l4.4-10.6
		c0.2-0.5,0.7-0.8,1.3-0.8h2.5l2.4,11.4H-378.9L-378.9,434.6z"/>
	<polygon display="none" fill="#010101" points="-382.2,430.6 -379.8,430.6 -380.7,426.3 	"/>
	<g>
		<path fill="#D4D5D2" d="M428.35-420.25c-13.6,0-24.6,11-24.6,24.6s11,24.6,24.6,24.6s24.6-11,24.6-24.6
			C453.05-409.25,441.95-420.25,428.35-420.25z M415.25-389.95l-2.4-9.1c-0.1-0.6-0.3-0.8-0.7-1c-0.7-0.4-1.9-0.7-2.9-1l0.1-0.3h5
			c0.6,0,1.2,0.4,1.4,1.2l1.2,6.6l3.1-7.8h3.1l-4.8,11.4L415.25-389.95L415.25-389.95z M421.95-389.95l2.4-11.4h3l-2.4,11.4H421.95z
			 M430.25-389.75c-1.3,0-2.6-0.3-3.3-0.6l0.5-2.5c0.7,0.3,1.5,0.7,3,0.7c0.9,0,1.8-0.4,1.8-1.1c0-0.5-0.4-0.9-1.5-1.4
			s-2.6-1.5-2.6-3.1c0-2.2,2.1-3.8,5-3.8c1.1,0,2.1,0.2,2.8,0.5l-0.5,2.4c-1.3-0.6-2.5-0.6-2.9-0.5c-0.9,0.1-1.2,0.5-1.3,1
			c0,1.3,4.2,1.5,4.1,4.5C435.45-391.25,433.35-389.75,430.25-389.75z M443.15-389.95l-0.4-1.7h-3.8l-0.6,1.7h-3.1l4.4-10.6
			c0.2-0.5,0.7-0.8,1.3-0.8h2.5l2.4,11.4H443.15L443.15-389.95z"/>
		<polygon fill="#D4D5D2" points="439.85,-393.95 442.25,-393.95 441.35,-398.25 		"/>
	</g>
</g>
<g>
	<path fill="#010101" d="M-393.7,404.3c-13.6,0-24.6,11-24.6,24.6s11,24.6,24.6,24.6s24.6-11,24.6-24.6
		C-369,415.3-380.1,404.3-393.7,404.3z M-406.8,434.6l-2.4-9.1c-0.1-0.6-0.3-0.8-0.7-1c-0.7-0.4-1.9-0.7-2.9-1l0.1-0.3h5
		c0.6,0,1.2,0.4,1.4,1.2l1.2,6.6l3.1-7.8h3.1l-4.8,11.4L-406.8,434.6L-406.8,434.6z M-400.1,434.6l2.4-11.4h3l-2.4,11.4H-400.1z
		 M-391.8,434.8c-1.3,0-2.6-0.3-3.3-0.6l0.5-2.5c0.7,0.3,1.5,0.7,3,0.7c0.9,0,1.8-0.4,1.8-1.1c0-0.5-0.4-0.9-1.5-1.4
		s-2.6-1.5-2.6-3.1c0-2.2,2.1-3.8,5-3.8c1.1,0,2.1,0.2,2.8,0.5l-0.5,2.4c-1.3-0.6-2.5-0.6-2.9-0.5c-0.9,0.1-1.2,0.5-1.3,1
		c0,1.3,4.2,1.5,4.1,4.5C-386.6,433.3-388.7,434.8-391.8,434.8z M-378.9,434.6l-0.4-1.7h-3.8l-0.6,1.7h-3.1l4.4-10.6
		c0.2-0.5,0.7-0.8,1.3-0.8h2.5l2.4,11.4H-378.9L-378.9,434.6z"/>
	<polygon display="none" fill="#010101" points="-382.2,430.6 -379.8,430.6 -380.7,426.3 	"/>
	<g>
		<path fill="#D4D5D2" d="M428.35-420.25c-13.6,0-24.6,11-24.6,24.6s11,24.6,24.6,24.6s24.6-11,24.6-24.6
			C453.05-409.25,441.95-420.25,428.35-420.25z M415.25-389.95l-2.4-9.1c-0.1-0.6-0.3-0.8-0.7-1c-0.7-0.4-1.9-0.7-2.9-1l0.1-0.3h5
			c0.6,0,1.2,0.4,1.4,1.2l1.2,6.6l3.1-7.8h3.1l-4.8,11.4L415.25-389.95L415.25-389.95z M421.95-389.95l2.4-11.4h3l-2.4,11.4H421.95z
			 M430.25-389.75c-1.3,0-2.6-0.3-3.3-0.6l0.5-2.5c0.7,0.3,1.5,0.7,3,0.7c0.9,0,1.8-0.4,1.8-1.1c0-0.5-0.4-0.9-1.5-1.4
			s-2.6-1.5-2.6-3.1c0-2.2,2.1-3.8,5-3.8c1.1,0,2.1,0.2,2.8,0.5l-0.5,2.4c-1.3-0.6-2.5-0.6-2.9-0.5c-0.9,0.1-1.2,0.5-1.3,1
			c0,1.3,4.2,1.5,4.1,4.5C435.45-391.25,433.35-389.75,430.25-389.75z M443.15-389.95l-0.4-1.7h-3.8l-0.6,1.7h-3.1l4.4-10.6
			c0.2-0.5,0.7-0.8,1.3-0.8h2.5l2.4,11.4H443.15L443.15-389.95z"/>
		<polygon fill="#D4D5D2" points="439.85,-393.95 442.25,-393.95 441.35,-398.25 		"/>
	</g>
</g>
<g>
	<path fill="#010101" d="M-393.7,404.3c-13.6,0-24.6,11-24.6,24.6s11,24.6,24.6,24.6s24.6-11,24.6-24.6
		C-369,415.3-380.1,404.3-393.7,404.3z M-406.8,434.6l-2.4-9.1c-0.1-0.6-0.3-0.8-0.7-1c-0.7-0.4-1.9-0.7-2.9-1l0.1-0.3h5
		c0.6,0,1.2,0.4,1.4,1.2l1.2,6.6l3.1-7.8h3.1l-4.8,11.4L-406.8,434.6L-406.8,434.6z M-400.1,434.6l2.4-11.4h3l-2.4,11.4H-400.1z
		 M-391.8,434.8c-1.3,0-2.6-0.3-3.3-0.6l0.5-2.5c0.7,0.3,1.5,0.7,3,0.7c0.9,0,1.8-0.4,1.8-1.1c0-0.5-0.4-0.9-1.5-1.4
		s-2.6-1.5-2.6-3.1c0-2.2,2.1-3.8,5-3.8c1.1,0,2.1,0.2,2.8,0.5l-0.5,2.4c-1.3-0.6-2.5-0.6-2.9-0.5c-0.9,0.1-1.2,0.5-1.3,1
		c0,1.3,4.2,1.5,4.1,4.5C-386.6,433.3-388.7,434.8-391.8,434.8z M-378.9,434.6l-0.4-1.7h-3.8l-0.6,1.7h-3.1l4.4-10.6
		c0.2-0.5,0.7-0.8,1.3-0.8h2.5l2.4,11.4H-378.9L-378.9,434.6z"/>
	<polygon display="none" fill="#010101" points="-382.2,430.6 -379.8,430.6 -380.7,426.3 	"/>
	<g>
		<path fill="#D4D5D2" d="M428.35-420.25c-13.6,0-24.6,11-24.6,24.6s11,24.6,24.6,24.6s24.6-11,24.6-24.6
			C453.05-409.25,441.95-420.25,428.35-420.25z M415.25-389.95l-2.4-9.1c-0.1-0.6-0.3-0.8-0.7-1c-0.7-0.4-1.9-0.7-2.9-1l0.1-0.3h5
			c0.6,0,1.2,0.4,1.4,1.2l1.2,6.6l3.1-7.8h3.1l-4.8,11.4L415.25-389.95L415.25-389.95z M421.95-389.95l2.4-11.4h3l-2.4,11.4H421.95z
			 M430.25-389.75c-1.3,0-2.6-0.3-3.3-0.6l0.5-2.5c0.7,0.3,1.5,0.7,3,0.7c0.9,0,1.8-0.4,1.8-1.1c0-0.5-0.4-0.9-1.5-1.4
			s-2.6-1.5-2.6-3.1c0-2.2,2.1-3.8,5-3.8c1.1,0,2.1,0.2,2.8,0.5l-0.5,2.4c-1.3-0.6-2.5-0.6-2.9-0.5c-0.9,0.1-1.2,0.5-1.3,1
			c0,1.3,4.2,1.5,4.1,4.5C435.45-391.25,433.35-389.75,430.25-389.75z M443.15-389.95l-0.4-1.7h-3.8l-0.6,1.7h-3.1l4.4-10.6
			c0.2-0.5,0.7-0.8,1.3-0.8h2.5l2.4,11.4H443.15L443.15-389.95z"/>
		<polygon fill="#D4D5D2" points="439.85,-393.95 442.25,-393.95 441.35,-398.25 		"/>
	</g>
</g>
<g>
	<path fill="#010101" d="M-393.7,404.3c-13.6,0-24.6,11-24.6,24.6s11,24.6,24.6,24.6s24.6-11,24.6-24.6
		C-369,415.3-380.1,404.3-393.7,404.3z M-406.8,434.6l-2.4-9.1c-0.1-0.6-0.3-0.8-0.7-1c-0.7-0.4-1.9-0.7-2.9-1l0.1-0.3h5
		c0.6,0,1.2,0.4,1.4,1.2l1.2,6.6l3.1-7.8h3.1l-4.8,11.4L-406.8,434.6L-406.8,434.6z M-400.1,434.6l2.4-11.4h3l-2.4,11.4H-400.1z
		 M-391.8,434.8c-1.3,0-2.6-0.3-3.3-0.6l0.5-2.5c0.7,0.3,1.5,0.7,3,0.7c0.9,0,1.8-0.4,1.8-1.1c0-0.5-0.4-0.9-1.5-1.4
		s-2.6-1.5-2.6-3.1c0-2.2,2.1-3.8,5-3.8c1.1,0,2.1,0.2,2.8,0.5l-0.5,2.4c-1.3-0.6-2.5-0.6-2.9-0.5c-0.9,0.1-1.2,0.5-1.3,1
		c0,1.3,4.2,1.5,4.1,4.5C-386.6,433.3-388.7,434.8-391.8,434.8z M-378.9,434.6l-0.4-1.7h-3.8l-0.6,1.7h-3.1l4.4-10.6
		c0.2-0.5,0.7-0.8,1.3-0.8h2.5l2.4,11.4H-378.9L-378.9,434.6z"/>
	<polygon display="none" fill="#010101" points="-382.2,430.6 -379.8,430.6 -380.7,426.3 	"/>
	<g>
		<path fill="#D4D5D2" d="M428.35-420.25c-13.6,0-24.6,11-24.6,24.6s11,24.6,24.6,24.6s24.6-11,24.6-24.6
			C453.05-409.25,441.95-420.25,428.35-420.25z M415.25-389.95l-2.4-9.1c-0.1-0.6-0.3-0.8-0.7-1c-0.7-0.4-1.9-0.7-2.9-1l0.1-0.3h5
			c0.6,0,1.2,0.4,1.4,1.2l1.2,6.6l3.1-7.8h3.1l-4.8,11.4L415.25-389.95L415.25-389.95z M421.95-389.95l2.4-11.4h3l-2.4,11.4H421.95z
			 M430.25-389.75c-1.3,0-2.6-0.3-3.3-0.6l0.5-2.5c0.7,0.3,1.5,0.7,3,0.7c0.9,0,1.8-0.4,1.8-1.1c0-0.5-0.4-0.9-1.5-1.4
			s-2.6-1.5-2.6-3.1c0-2.2,2.1-3.8,5-3.8c1.1,0,2.1,0.2,2.8,0.5l-0.5,2.4c-1.3-0.6-2.5-0.6-2.9-0.5c-0.9,0.1-1.2,0.5-1.3,1
			c0,1.3,4.2,1.5,4.1,4.5C435.45-391.25,433.35-389.75,430.25-389.75z M443.15-389.95l-0.4-1.7h-3.8l-0.6,1.7h-3.1l4.4-10.6
			c0.2-0.5,0.7-0.8,1.3-0.8h2.5l2.4,11.4H443.15L443.15-389.95z"/>
		<polygon fill="#D4D5D2" points="439.85,-393.95 442.25,-393.95 441.35,-398.25 		"/>
	</g>
</g>
<g>
	<path fill="#010101" d="M-393.7,404.3c-13.6,0-24.6,11-24.6,24.6s11,24.6,24.6,24.6s24.6-11,24.6-24.6
		C-369,415.3-380.1,404.3-393.7,404.3z M-406.8,434.6l-2.4-9.1c-0.1-0.6-0.3-0.8-0.7-1c-0.7-0.4-1.9-0.7-2.9-1l0.1-0.3h5
		c0.6,0,1.2,0.4,1.4,1.2l1.2,6.6l3.1-7.8h3.1l-4.8,11.4L-406.8,434.6L-406.8,434.6z M-400.1,434.6l2.4-11.4h3l-2.4,11.4H-400.1z
		 M-391.8,434.8c-1.3,0-2.6-0.3-3.3-0.6l0.5-2.5c0.7,0.3,1.5,0.7,3,0.7c0.9,0,1.8-0.4,1.8-1.1c0-0.5-0.4-0.9-1.5-1.4
		s-2.6-1.5-2.6-3.1c0-2.2,2.1-3.8,5-3.8c1.1,0,2.1,0.2,2.8,0.5l-0.5,2.4c-1.3-0.6-2.5-0.6-2.9-0.5c-0.9,0.1-1.2,0.5-1.3,1
		c0,1.3,4.2,1.5,4.1,4.5C-386.6,433.3-388.7,434.8-391.8,434.8z M-378.9,434.6l-0.4-1.7h-3.8l-0.6,1.7h-3.1l4.4-10.6
		c0.2-0.5,0.7-0.8,1.3-0.8h2.5l2.4,11.4H-378.9L-378.9,434.6z"/>
	<polygon display="none" fill="#010101" points="-382.2,430.6 -379.8,430.6 -380.7,426.3 	"/>
	<g>
		<path fill="#D4D5D2" d="M428.35-420.25c-13.6,0-24.6,11-24.6,24.6s11,24.6,24.6,24.6s24.6-11,24.6-24.6
			C453.05-409.25,441.95-420.25,428.35-420.25z M415.25-389.95l-2.4-9.1c-0.1-0.6-0.3-0.8-0.7-1c-0.7-0.4-1.9-0.7-2.9-1l0.1-0.3h5
			c0.6,0,1.2,0.4,1.4,1.2l1.2,6.6l3.1-7.8h3.1l-4.8,11.4L415.25-389.95L415.25-389.95z M421.95-389.95l2.4-11.4h3l-2.4,11.4H421.95z
			 M430.25-389.75c-1.3,0-2.6-0.3-3.3-0.6l0.5-2.5c0.7,0.3,1.5,0.7,3,0.7c0.9,0,1.8-0.4,1.8-1.1c0-0.5-0.4-0.9-1.5-1.4
			s-2.6-1.5-2.6-3.1c0-2.2,2.1-3.8,5-3.8c1.1,0,2.1,0.2,2.8,0.5l-0.5,2.4c-1.3-0.6-2.5-0.6-2.9-0.5c-0.9,0.1-1.2,0.5-1.3,1
			c0,1.3,4.2,1.5,4.1,4.5C435.45-391.25,433.35-389.75,430.25-389.75z M443.15-389.95l-0.4-1.7h-3.8l-0.6,1.7h-3.1l4.4-10.6
			c0.2-0.5,0.7-0.8,1.3-0.8h2.5l2.4,11.4H443.15L443.15-389.95z"/>
		<polygon fill="#D4D5D2" points="439.85,-393.95 442.25,-393.95 441.35,-398.25 		"/>
	</g>
</g>
<g>
	<path fill="#D4D5D2" d="M16,0.403c-8.615,0-15.583,6.987-15.583,15.625S7.385,31.653,16,31.653s15.583-6.987,15.583-15.625
		C31.646,7.39,24.615,0.403,16,0.403z M7.702,19.649l-1.52-5.78c-0.063-0.381-0.19-0.508-0.443-0.635
		c-0.443-0.254-1.204-0.445-1.837-0.635l0.063-0.191h3.167c0.38,0,0.76,0.254,0.887,0.762l0.76,4.192l1.964-4.954h1.964
		l-3.041,7.241L7.702,19.649L7.702,19.649z M11.946,19.649l1.52-7.241h1.9l-1.52,7.241H11.946z M17.203,19.776
		c-0.823,0-1.647-0.191-2.09-0.381l0.317-1.588c0.443,0.191,0.95,0.445,1.9,0.445c0.57,0,1.14-0.254,1.14-0.699
		c0-0.318-0.253-0.572-0.95-0.889s-1.647-0.953-1.647-1.969c0-1.397,1.33-2.414,3.167-2.414c0.697,0,1.33,0.127,1.774,0.318
		l-0.317,1.524c-0.823-0.381-1.584-0.381-1.837-0.318c-0.57,0.064-0.76,0.318-0.823,0.635c0,0.826,2.66,0.953,2.597,2.858
		C20.497,18.823,19.167,19.776,17.203,19.776z M25.375,19.649l-0.253-1.08h-2.407l-0.38,1.08h-1.964l2.787-6.733
		c0.127-0.318,0.443-0.508,0.823-0.508h1.584l1.52,7.241H25.375L25.375,19.649z"/>
	<polygon fill="#D4D5D2" points="23.262,17.108 24.786,17.108 24.215,14.377 	"/>
</g>
</svg>
